# Blender v2.91.0 OBJ File: ''
# www.blender.org
o wireframeCube
v -0.877017 -0.876089 0.877582
v 0.875729 -0.876089 0.877582
v 0.875729 -0.999631 0.877582
v -0.877017 -0.999631 0.877582
v -0.877017 -0.876089 1.000042
v 0.875729 -0.876089 1.000042
v 0.999392 -0.876089 0.877582
v 0.875729 0.875214 0.877584
v 0.999392 0.875214 0.877584
v 0.875729 0.875214 1.000044
v -0.877017 0.875226 0.877584
v -0.877017 0.998633 0.877584
v 0.875729 0.998633 0.877584
v -0.877017 0.875226 1.000044
v -1.000698 -0.876089 0.877582
v -1.000698 0.875227 0.877584
v -1.000698 -0.999629 -0.999439
v -0.877017 -0.876087 -0.999439
v 0.875729 -0.876087 -0.999439
v 0.999392 -0.999629 -0.999439
v 0.999392 -0.999631 1.000042
v -1.000698 -0.999631 1.000042
v 0.875729 0.998635 -0.876977
v 0.875729 0.875216 -0.876977
v 0.999392 0.875216 -0.876977
v 0.999392 -0.876087 -0.876979
v 0.999392 0.998633 1.000044
v -0.877017 -0.999629 -0.876979
v 0.875729 -0.999629 -0.876979
v 0.875729 -0.876087 -0.876979
v -0.877017 -0.876087 -0.876979
v -1.000698 -0.876087 -0.876979
v -1.000698 0.875228 -0.876977
v -0.877017 0.875228 -0.876977
v -0.877017 0.998635 -0.876977
v -1.000698 0.998633 1.000044
v -1.000698 0.998635 -0.999437
v 0.999392 0.998635 -0.999437
v 0.875729 0.875216 -0.999437
v -0.877017 0.875228 -0.999437
vn 0.0000 0.0000 -1.0000
vn 0.0000 1.0000 0.0000
vn -1.0000 0.0000 0.0000
vn -0.0000 -1.0000 0.0000
vn 1.0000 0.0000 0.0000
vn 0.0000 -0.0000 1.0000
usemtl Default_OBJ
s 1
f 1//1 2//1 3//1 4//1
f 1//2 5//2 6//2 2//2
f 7//1 2//1 8//1 9//1
f 2//3 6//3 10//3 8//3
f 11//1 12//1 13//1 8//1
f 11//4 8//4 10//4 14//4
f 1//1 15//1 16//1 11//1
f 5//5 1//5 11//5 14//5
f 17//1 18//1 19//1 20//1
f 3//4 21//4 22//4 4//4
f 13//3 23//3 24//3 8//3
f 8//4 24//4 25//4 9//4
f 20//5 26//5 7//5 21//5
f 27//5 21//5 7//5 9//5
f 28//4 4//4 22//4 17//4
f 5//6 22//6 21//6 6//6
f 3//4 29//4 20//4 21//4
f 17//4 20//4 29//4 28//4
f 7//2 26//2 30//2 2//2
f 3//3 2//3 30//3 29//3
f 4//5 28//5 31//5 1//5
f 1//2 31//2 32//2 15//2
f 16//4 33//4 34//4 11//4
f 11//5 34//5 35//5 12//5
f 16//3 36//3 37//3 33//3
f 13//2 27//2 38//2 23//2
f 25//5 38//5 27//5 9//5
f 36//2 27//2 13//2 12//2
f 37//2 36//2 12//2 35//2
f 37//2 35//2 23//2 38//2
f 15//3 32//3 17//3 22//3
f 33//3 37//3 17//3 32//3
f 22//3 36//3 16//3 15//3
f 38//1 39//1 40//1 37//1
f 37//1 40//1 18//1 17//1
f 39//1 38//1 20//1 19//1
f 10//6 6//6 21//6 27//6
f 18//2 31//2 30//2 19//2
f 10//6 27//6 36//6 14//6
f 19//3 30//3 24//3 39//3
f 40//4 39//4 24//4 34//4
f 31//5 18//5 40//5 34//5
f 32//6 31//6 34//6 33//6
f 24//6 23//6 35//6 34//6
f 30//6 26//6 25//6 24//6
f 26//5 20//5 38//5 25//5
f 30//6 31//6 28//6 29//6
f 14//6 36//6 22//6 5//6
